<svg xmlns="http://www.w3.org/2000/svg" xmlns:xlink="http://www.w3.org/1999/xlink" width="500" zoomAndPan="magnify" viewBox="0 0 375 374.999991" height="500" preserveAspectRatio="xMidYMid meet" version="1.0"><defs><g/></defs><path fill="#ffffff" d="M 41.234375 212.25 L 333.757812 212.25 L 333.757812 220.5 L 41.234375 220.5 Z M 41.234375 212.25 " fill-opacity="1" fill-rule="nonzero"/><g fill="#ffffff" fill-opacity="1"><g transform="translate(41.235354, 207.749986)"><g><path d="M 24.984375 -11.890625 L 57.03125 -11.890625 L 57.03125 0 L 3.828125 0 L 35.609375 -50.65625 L 16.578125 -50.65625 C 14.648438 -50.65625 12.789062 -51.265625 11 -52.484375 C 9.21875 -53.703125 8.328125 -55.128906 8.328125 -56.765625 L 8.328125 -65.6875 L 19.625 -65.6875 L 19.625 -64.5 C 19.625 -63.539062 19.738281 -62.960938 19.96875 -62.765625 C 20.195312 -62.566406 20.566406 -62.476562 21.078125 -62.5 C 21.585938 -62.53125 22.007812 -62.546875 22.34375 -62.546875 L 57.109375 -62.546875 Z M 24.984375 -11.890625 "/></g></g></g><g fill="#ffffff" fill-opacity="1"><g transform="translate(102.594061, 207.749986)"><g><path d="M 39 -12.234375 L 18.265625 -12.234375 L 13.171875 0 L 1.015625 0 L 29.234375 -65.015625 L 29.921875 -65.015625 L 58.125 0 L 43.859375 0 Z M 34.921875 -22.609375 L 28.890625 -37.8125 L 22.609375 -22.609375 Z M 34.921875 -22.609375 "/></g></g></g><g fill="#ffffff" fill-opacity="1"><g transform="translate(161.743178, 207.749986)"><g><path d="M 27.03125 -62.546875 C 34.675781 -62.546875 40.59375 -60.660156 44.78125 -56.890625 C 48.976562 -53.128906 51.078125 -47.988281 51.078125 -41.46875 C 51.078125 -37.726562 50.351562 -34.226562 48.90625 -30.96875 C 47.457031 -27.71875 45.101562 -25.039062 41.84375 -22.9375 C 38.59375 -20.84375 34.390625 -19.796875 29.234375 -19.796875 L 20.390625 -19.796875 L 20.390625 0 L 8.078125 0 L 8.078125 -62.546875 Z M 29.15625 -31.78125 C 31.476562 -31.78125 33.347656 -32.300781 34.765625 -33.34375 C 36.179688 -34.394531 37.195312 -35.628906 37.8125 -37.046875 C 38.4375 -38.460938 38.75 -39.820312 38.75 -41.125 C 38.75 -43.34375 38.097656 -45.484375 36.796875 -47.546875 C 35.492188 -49.617188 32.972656 -50.65625 29.234375 -50.65625 L 20.390625 -50.65625 L 20.390625 -31.78125 Z M 29.15625 -31.78125 "/></g></g></g><g fill="#ffffff" fill-opacity="1"><g transform="translate(215.793231, 207.749986)"><g><path d="M 60.078125 -62.546875 L 36.625 -19.46875 L 36.625 0 L 24.3125 0 L 24.3125 -19.46875 L 1.28125 -62.546875 L 16.484375 -62.546875 L 30.84375 -33.65625 L 44.875 -62.546875 Z M 60.078125 -62.546875 "/></g></g></g><g fill="#ffffff" fill-opacity="1"><g transform="translate(277.151949, 207.749986)"><g><path d="M 50.734375 -62.546875 L 50.734375 -50.65625 L 20.390625 -50.65625 L 20.390625 -37.3125 L 47.25 -37.3125 L 47.25 -25.40625 L 20.390625 -25.40625 L 20.390625 -11.890625 L 51.921875 -11.890625 L 51.921875 0 L 8.078125 0 L 8.078125 -62.546875 Z M 50.734375 -62.546875 "/></g></g></g></svg>